<?xml version="1.0" encoding="UTF-8" standalone="no"?>
<svg xmlns:rdf="http://www.w3.org/1999/02/22-rdf-syntax-ns#" xmlns="http://www.w3.org/2000/svg" height="679.69" viewBox="0 0 547.5 679.6875" width="547.5" version="1.1" xmlns:cc="http://creativecommons.org/ns#" xmlns:dc="http://purl.org/dc/elements/1.1/">
<path d="m166.41 678.89c-2.5781-0.35294-5.1852-0.9572-5.7936-1.3428-1.0136-0.6425-6.2614-1.4813-21.394-3.4197-7.7672-0.99491-19.009-4.2277-28.542-8.2079-4.4116-1.8419-11.234-4.3479-15.162-5.5688-4.2527-1.322-10.13-4.1859-14.531-7.0808-4.0646-2.6736-9.4742-5.4139-12.021-6.0897-8.41-2.23-20.947-13.02-28.131-24.21-1.987-3.09-4.581-6.68-5.765-7.97-1.1844-1.2891-3.6874-5.7114-5.5622-9.8275s-5.1677-9.3931-7.3174-11.727c-6.563-7.13-14.812-25.25-17.501-38.44-1.6246-7.97-2.312-15.3-4.1354-44.07-0.49462-7.81 0.9081-26.56 2.6645-35.63 0.74922-3.8672 1.6224-9.7734 1.9405-13.125 1.7993-18.961 10.569-52.907 16.99-65.766 0.68237-1.3666 2.5204-5.9913 4.0846-10.277 1.5642-4.2859 3.8933-9.3782 5.1758-11.316 1.2825-1.938 4.0044-7.144 6.0487-11.569 6.1971-13.414 15.785-27.354 28.906-42.026 3.7574-4.2018 8.0371-9.7692 9.5104-12.372 3.8258-6.7588 7.0695-10.335 14.567-16.061 3.6251-2.7687 9.0747-7.1114 12.11-9.6504 3.0354-2.539 9.1526-6.8225 13.594-9.519 4.4411-2.6965 13.137-8.1279 19.325-12.07 22.352-14.24 45.055-23.62 66.064-27.295 2.8521-0.49886 9.1934-1.7619 14.092-2.8067 4.8984-1.0448 9.8966-2.1002 11.107-2.3453 2.7926-0.56545 2.3511-2.6928-2.1419-10.319-1.7867-3.0326-3.9373-6.7214-4.7792-8.1974-4.6701-8.1877-1.7347-17.036 6.7835-20.448 16.55-6.6289 24.958-8.2905 30.414-6.0108 3.5477 1.4823 7.9137 0.95418 18.573-2.2466 3.3758-1.0137 10.067-2.9112 14.87-4.2167 30.937-8.4097 63.247-27.041 67.134-38.711 1.3381-4.0179 3.4514-8.8042 4.6962-10.636 1.2448-1.8319 2.5538-4.8792 2.9088-6.7716 0.76639-4.0852 5.5014-10.961 7.9977-11.614 1.8744-0.49016 3.3938-5.6627 2.4136-8.217-0.77406-2.0172-5.1531-1.7521-9.4945 0.57474-8.1799 4.3842-23.33-1.9643-27.086-11.35l-1.5637-3.9081-6.3068 0.61489c-3.4687 0.33819-10.205 1.2145-14.969 1.9473-29.188 4.49-21.061-2.8064 11.474-10.302 8.0696-1.859 8.3578-2.2384 9.8183-12.926 0.64863-4.7464 1.7797-10.332 2.5136-12.412 1.4789-4.1917 0.27358-6.1299-3.8392-6.1738-7.1659-0.07644-13.88-6.5876-13.458-13.052l0.2783-4.2709 6.5625-1.7782c4.2576-1.1537 9.9474-1.8122 16.2-1.875l9.6375-0.09678 5.3769-5.625c24.163-25.278 50.422-28.241 61.193-6.9048 4.3618 8.6408 3.0201 22.624-2.5946 27.041-5.1258 4.0319-6.7507 1.8058-4.4524-6.0999 10.734-36.923-34.531-37.429-54.822-0.61294-1.6148 2.9298-3.4513 6.0772-4.081 6.9943-1.9055 2.7747 0.71994 3.4582 13.386 3.485 30.304 0.06415 43.219 0.96437 50.625 3.5287 17.573 6.0846 21.769 19.864 7.9144 25.991-3.9535 1.7484-5.1607 2.7928-5.63 4.8707-1.9821 8.7754-2.4635 9.8129-5.3789 11.591-1.6496 1.0058-3.843 1.8368-4.8742 1.8466-3.7588 0.0358-4.9406 1.7828-2.3438 3.4647 3.4489 2.2336 17.744 17.024 20.653 21.368 1.3811 2.0625 6.4257 7.7578 11.21 12.656 4.7845 4.8984 9.7466 10.594 11.027 12.656 1.2803 2.0625 3.6844 5.2266 5.3424 7.0312 1.658 1.8047 5.0893 6.1525 7.6252 9.6618s6.8461 9.4156 9.5782 13.125c8.971 12.18 18.786 29.867 24.996 45.041 1.7197 4.2024 4.3843 10.383 5.9213 13.734 5.2577 11.465 6.5317 25.326 2.9998 32.636-2.0794 4.3038-2.1378 4.3414-4.654 2.9948-1.5275-0.81751-1.9337-0.33078-3.3253 3.9844-6.7522 20.938-43.336 43.686-70.499 43.836-5.2545 0.0291-5.4387 1.1328-1.3272 7.9498 2.0972 3.4772 4.5218 8.4866 5.388 11.132 0.8662 2.6455 2.7228 7.1303 4.1258 9.9662 2.6618 5.3804 5.9665 15.002 7.0843 20.625 0.35873 1.8047 2.4425 6.8672 4.6306 11.25s4.6867 10.5 5.5525 13.594c0.86573 3.0938 3.433 11.32 5.7051 18.281 6.9606 21.325 12.278 41.378 14.045 52.969 0.31443 2.0625 2.209 11.555 4.2102 21.094 2.0012 9.5391 4.1285 21.141 4.7273 25.781 0.59883 4.6406 1.736 11.602 2.5271 15.469 0.80879 3.9538 1.523 12.877 1.6319 20.388 0.22912 15.806-0.48186 14.731 9.5376 14.418 8.3536-0.26154 7.9862-0.35718 24.256 6.3134 17.612 7.221 30.17 47.146 21.568 68.569-5.0189 12.499-27.59 33.15-38.365 35.103-2.0198 0.36606-4.9814 1.664-6.5813 2.8843-8.6454 6.5942-37.242 5.9478-56.309-1.2726-4.125-1.5621-9.3932-3.3956-11.707-4.0744-12.136-3.56-28.204-41.289-20.527-48.198 1.0915-0.98227 2.9737-4.0166 4.1827-6.743 2.4496-5.5241 11.566-19.75 13.894-21.683 2.3489-1.9494 1.9406-2.5111-5.2953-7.2848-8.8845-5.8612-7.3981-6.5622-17.268 8.1432-5.2777 7.8638-15.168 19.828-18.955 22.931-1.8627 1.5259-6.6362 5.7982-10.608 9.494-3.9714 3.6958-9.2449 7.8935-11.719 9.3282-2.4739 1.4347-5.5041 3.385-6.7338 4.3341-1.2297 0.94908-3.7006 1.7256-5.491 1.7256-3.8278 0-14.094 4.6646-16.703 7.5896-2.2471 2.5188-19.642 11.16-22.464 11.16-1.1333 0-4.4322 1.2656-7.331 2.8125s-5.7094 2.8125-6.2459 2.8125c-1.2757 0-15.629 5.649-23.624 9.2978-10.116 4.6166-32.675 6.7493-83.249 7.8702-12.117 0.26856-24.141 0.19953-26.719-0.1534zm61.846-10.516c9.3487-1.628 9.6527-3.3056 3.8106-21.03-6.8-20.6-10.15-35.07-12.69-54.84-0.56412-4.3828-1.6179-9.8672-2.3417-12.188-2.3931-7.6717-5.9625-27.51-6.6152-36.767-0.88916-12.611-4.6976-14.808-26.674-15.387-5.4141-0.14257-10.63-0.30137-11.59-0.35292-2.435-0.13065-2.6163 0.1836-3.9187 6.7922-0.63632 3.229-1.8368 8.3853-2.6677 11.458-0.83092 3.0732-1.5108 6.9718-1.5108 8.6636s-1.0493 6.1383-2.3318 9.8812c-2.2328 6.5163-3.672 12.73-7.9811 34.461-1.0736 5.4141-2.7522 13.219-3.7303 17.344-0.97808 4.125-2.2459 12.562-2.8173 18.75-0.57142 6.1875-1.4603 15.013-1.9752 19.612-0.73834 6.5941-0.6796 8.6018 0.27786 9.4971 1.4649 1.3699 18.707 4.5229 21.089 3.8565 0.9283-0.25971 10.547-0.15304 21.375 0.23702 30.263 1.0902 34.102 1.0916 40.284 0.0151zm31.902-5.1036c5.155-1.283 10.428-2.3329 11.719-2.3331 2.4225-0.00049 10.359-2.7546 15.298-5.309 1.5474-0.80016 5.7296-2.263 9.2939-3.2507 3.5643-0.98772 9.2982-3.2044 12.742-4.9259 3.4439-1.7215 7.9491-3.6543 10.012-4.2951 2.0625-0.64078 6.4922-2.7509 9.8438-4.6892s8.1842-4.5309 10.739-5.7613c6.9548-3.3494 4.5907-7.2821-17.407-28.956-3.9249-3.8672-10.011-11.039-13.525-15.938-3.5136-4.8984-13.437-16.289-22.052-25.312-18.925-19.822-26.273-28.586-43.428-51.797-2.9535-3.9961-5.7245-7.2656-6.1578-7.2656-1.2841 0-6.5092 6.3914-7.8844 9.6443-1.2258 2.8993-9.5334 11.294-13.272 13.412-2.2121 1.2528-2.1124 4.4659 0.44804 14.444 0.99234 3.8672 2.4645 11.461 3.2714 16.875 0.80696 5.4141 2.2683 12.375 3.2475 15.469 2.6301 8.3101 5.4831 21.39 7.1823 32.929 1.405 9.5408 6.0471 28.668 7.7912 32.102 0.42778 0.84232 1.2931 4.2737 1.9229 7.6252 0.62978 3.3516 1.7449 7.0281 2.478 8.1701 0.73314 1.142 1.333 3.1185 1.333 4.3921 0 7.7463 2.0507 8.3426 16.404 4.7704zm230.64-0.42172c31.666-7.9972 47.9-27.577 46.345-55.894l-0.51896-9.452-5.3321-8.9357c-10.693-17.919-22.956-24.046-37.666-18.817l-4.6593 1.6562-1.1001 7.0312c-4.6138 29.489-8.4634 33.627-22.771 24.475-2.5543-1.6338-10.277-4.959-17.904-7.7087l-5.1562-1.8591-6.5997 6.8533c-17.758 18.44-19.042 33.341-4.2946 49.852l7.8557 8.7951 11.363 2.8665c15.374 3.8782 14.229 3.6826 22.279 3.8048 5.1317 0.0779 10.286-0.67936 18.16-2.6678zm-355.94-2.2054c0.56231-0.67755 1.4402-4.7908 1.9509-9.1406 0.845-7.1975 2.6157-16.29 9.026-46.346 1.2097-5.6719 2.8806-12.844 3.7131-15.938 0.83256-3.0938 1.8924-8.5781 2.3553-12.188 1.8355-14.314 3.6668-24.86 6.1046-35.156 1.4039-5.9297 2.7661-11.775 3.027-12.99 0.60918-2.8361-1.0299-3.8521-6.2436-3.8703-8.6664-0.0302-22.629-5.8257-23.375-9.7028-1.1356-5.8968 8.3848-9.9991 23.206-9.9991 12.723 0 13.07-0.25722 16.442-12.188 3.4615-12.245 7.471-22.503 12.332-31.551 5.9404-11.056 5.429-17.265-0.97881-11.881-1.7353 1.4579-5.3119 4.3382-7.948 6.4007-14.988 11.727-36.465 31.708-42.279 39.334-1.8047 2.3674-5.4961 7.0714-8.2031 10.453-2.707 3.382-4.9219 6.5348-4.9219 7.0063 0 0.47147-1.4213 2.4405-3.1585 4.3755-1.7372 1.9351-4.7701 6.0496-6.7399 9.1433-1.9697 3.0938-6.3749 8.5781-9.7893 12.188-3.4144 3.6094-7.9393 9.5278-10.055 13.152-2.4782 4.2445-6.1585 8.6435-10.342 12.361-4.7374 4.2104-7.453 7.5963-10.038 12.516-1.9492 3.7094-6.1787 9.6152-9.3988 13.124-3.2201 3.5089-7.1282 8.6362-8.6846 11.394-1.5564 2.7579-3.5108 5.5794-4.3429 6.27-5.3293 4.4229 15.053 25.208 34.112 34.785 22.548 11.331 51.861 21.302 54.23 18.447zm228.01-44.471c11.236-8.3887 17.801-14.614 22.989-21.795 3.0511-4.2244 7.3746-9.8553 9.6078-12.513 5.2764-6.2794 8.7601-12.22 8.1296-13.863-0.74359-1.9378-10.911-8.0229-15.446-9.2439-2.17-0.58432-5.7002-2.6327-7.8449-4.5521-2.1447-1.9193-7.21-6.006-11.256-9.0816-14.477-11.004-16.792-12.884-22.957-18.65-7.1529-6.6884-22.926-19.323-26.404-21.15-1.2891-0.67708-7.1496-4.859-13.023-9.2931-11.991-9.0524-12.348-9.2993-27.289-18.888-5.9297-3.8054-12.372-8.1364-14.315-9.6243-4.3366-3.3198-5.6119-2.9201-7.1591 2.244-2.3109 7.7131-8.3593 19.433-10.356 20.067-2.6253 0.83323-2.4441 1.4869 1.447 5.2209 1.8517 1.7769 5.71 7.1956 8.574 12.042 3.0135 5.0989 9.0005 13.017 14.211 18.796 4.9523 5.492 11.648 13.129 14.879 16.97 11.283 13.416 25.183 28.905 41.001 45.686 8.7656 9.2997 18.824 20.111 22.352 24.026 7.4759 8.2948 6.8212 8.1115 12.862 3.6014zm-316.99-18.28c4.6835-8.6148 8.2001-13.615 14.053-19.982 2.8743-3.1269 6.8334-7.9785 8.798-10.781 14.638-20.882 20.496-28.947 27.879-38.377 4.6425-5.9297 9.9876-13.312 11.878-16.406 8.171-13.372 36.346-43.847 61.216-66.216 9.0466-8.1365 9.212-9.4906 0.75392-6.1704-3.2588 1.2792-7.6125 2.6203-9.675 2.9803-2.0625 0.35996-5.8917 1.8745-8.5093 3.3656s-7.6801 3.3833-11.25 4.205c-4.3648 1.0046-9.3669 3.2053-15.272 6.7193-4.8299 2.874-12.213 6.5787-16.406 8.2328-4.1936 1.654-11.843 5.1248-17 7.7129-5.1562 2.5881-12.539 6.0694-16.406 7.7363-16.724 7.2087-31.625 15.126-34.219 18.182-1.8152 2.1386-12.38 7.8358-15.678 8.4546-2.2815 0.42803-5.0747 2.2954-8.8291 5.9027l-5.4917 5.2766 0.25025 6.1843c0.54063 13.36 7.3108 38.4 12.88 47.635 1.799 2.9834 3.272 5.7484 3.2733 6.1444 0.0013 0.39603 1.6494 3.4311 3.6625 6.7446 2.013 3.3135 4.1788 7.6301 4.8129 9.5924 3.3419 10.343 4.9451 10.838 9.2798 2.8647zm426.93-14.65c2.3773-10.587-1.3335-11.513-13.6-3.3962-6.5024 4.3031-6.0834 5.817 2.6073 9.4185 8.4004 3.4812 8.9223 3.1953 10.992-6.0223zm-29.43-6.7442c2.3542-1.0677 4.9132-2.3309 5.6866-2.8071 8.2616-5.0863 11.882-6.9427 18.441-9.4565 5.5949-2.1442 7.8028-3.4684 8.1903-4.9122 1.0985-4.0925 0.50447-28.283-0.84283-34.32-1.1504-5.1548-2.7001-17.1-5.6844-43.816-0.30165-2.7004-1.5728-8.6066-2.8248-13.125s-3.5722-13.489-5.1561-19.934c-3.2244-13.121-9.6238-33.44-12.106-38.438-0.89637-1.8047-2.5861-7.0781-3.7549-11.719-1.1688-4.6406-4.8293-15.398-8.1343-23.906-3.305-8.5078-7.1461-18.422-8.5358-22.031-8.7521-22.732-21.342-42.656-26.953-42.656-5.5897 0-5.807 0.98592-1.5983 7.2499 1.9979 2.9735 6.2835 10.68 9.5235 17.125 3.2401 6.4453 6.2578 12.173 6.7061 12.729 0.44827 0.55554 1.4161 3.8776 2.1508 7.3824 0.73465 3.5048 2.2515 7.6109 3.3707 9.1247 5.4688 7.3969 7.5034 11.222 9.7241 18.28 3.3886 10.771 5.1359 18.732 6.2291 28.383 1.1861 10.47 1.3513 10.866 4.974 11.905 3.6514 1.0472 4.3114 3.5212 1.6852 6.3166-1.8706 1.9911-1.9537 3.0775-1.9857 25.932-0.0431 30.823-4.1974 66.595-8.9933 77.44-1.288 2.9123-3.1993 8.922-4.2474 13.355-1.0481 4.4328-3.3848 10.883-5.1928 14.334-3.8946 7.4345-4.2121 6.7061 6.0313 13.833 9.4772 6.5942 7.9374 6.162 13.296 3.7316zm-29.5-29.231c2.5503-5.8008 5.6314-12.164 6.847-14.14 1.2761-2.0745 2.7885-6.9061 3.5787-11.433 0.75268-4.3122 2.3566-10.5 3.5644-13.751 5.0124-13.492 6.5875-64.426 2.1302-68.883-0.32456-0.32457-11.882-0.71249-25.684-0.86207-24.159-0.26184-50.072-1.6524-51.905-2.7855-0.48462-0.29952-12.482-0.0394-26.662 0.57814-23.296 1.0145-26.313 0.97336-31.303-0.42688-3.4548-0.96937-6.9057-1.3284-9.2162-0.95897-2.5817 0.41282-4.6084 0.11752-6.7327-0.98099-3.0346-1.5693-6.6187-0.2522-6.6187 2.4322 0 0.42043-1.0052 2.9918-2.2337 5.7141-1.2286 2.7223-2.5411 6.0044-2.9168 7.2934-0.37568 1.2891-1.3317 3.7458-2.1245 5.4595-1.9326 4.1772-1.2106 4.8101 15.244 13.362 16.111 8.3736 21.063 11.468 29.767 18.601 3.7373 3.0628 11.085 8.4464 16.329 11.964 5.2438 3.5172 17.202 12.934 26.575 20.926 21.625 18.44 27.345 22.891 33.735 26.25 2.8359 1.4907 8.5312 4.8084 12.656 7.3726 10.143 6.3056 9.5835 6.52 14.97-5.7319zm-202.77-28.636c10.114-12.515 12.138-16.438 9.2707-17.972-3.7858-2.0261-4.7508-1.2805-4.5077 3.4826l0.22732 4.4531-4.2188 0.46875-4.2188 0.46875 0.29855 3.8163c0.48537 6.2044-3.4908 7.7582-6.8264 2.6674-2.085-3.1821-3.3159-2.8172-3.3159 0.98324 0 6.0701-4.6233 6.278-7.4789 0.33624-1.5898-3.3081-3.8629-3.6855-12.912-2.1437-4.1114 0.70054-4.4531 4.6957-0.46875 5.4806 10.713 2.1103 16.374 2.8117 26.016 3.2238 3.5079 0.14995 4.033-0.18994 8.1347-5.2653zm-46.688-1.3385c1.8487-2.9529-0.65044-4.0045-9.0844-3.8224-14.198 0.30655-17.011 3.5747-4.2594 4.9492 9.3652 1.0095 12.154 0.77399 13.344-1.1268zm31.053-13.225c7.7359-1.3326 8.2264-2.4876 5.7632-13.572-0.76706-3.4518-1.6934-10.865-2.0585-16.474-0.88589-13.61-5.6666-18.948-8.4939-9.484-0.61528 2.0596-2.4614 6.9089-4.1025 10.776-11.313 26.659-9.6761 31.953 8.8917 28.754zm-179.46-3.99c2.291-2.4486 10.717-6.7564 41.648-21.292 47.878-22.499 59.381-27.777 62.812-28.82 2.0625-0.62671 8.1797-3.2332 13.594-5.7922 5.4141-2.559 11.531-5.255 13.594-5.9912 8.2562-2.9469 17.364-7.3346 17.068-8.2226-0.43938-1.3182-18.881-5.8455-30.662-7.5272-14.444-2.062-25.758-4.0585-43.125-7.61-8.5078-1.7398-18.422-3.4524-22.031-3.8058-3.6094-0.35337-7.632-1.1815-8.9392-1.8402-2.8017-1.4119-24.271-4.6925-28.258-4.318-1.8865 0.17717-6.6968 12.041-8.7107 21.483-0.74152 3.4766-2.4448 9.4852-3.7851 13.352-1.5469 4.4634-2.7239 10.513-3.223 16.565-0.43238 5.2437-1.0201 9.9125-1.3061 10.375-1.1997 1.9412-4.51 32.545-3.7379 34.557 0.75999 1.9805 2.5318 1.5906 5.0625-1.1142zm213.31-8.4212c1.1733-4.6747-2.7519-9.4305-5.738-6.9522-1.9219 1.595-1.7482 3.3374 0.65699 6.5906 2.5239 3.4137 4.2836 3.539 5.0811 0.36166zm-17.083-7.3541 1.7257-3.2045-2.5762-3.3776c-2.4516-3.2142-2.5327-3.6475-1.6772-8.9598 0.98576-6.121 0.406-8.1082-2.0865-7.1518-1.4048 0.53906-1.5226 1.3002-0.85583 5.5272 0.42529 2.6961 0.86994 7.6443 0.9881 10.996 0.11817 3.3516 0.24978 6.832 0.29248 7.7344 0.12739 2.6922 2.3428 1.8652 4.1895-1.5638zm24.022-8.504c-1.171-1.4109-2.8211-1.1104-2.8211 0.51376 0 0.48519 0.89541 0.88217 1.9898 0.88217 1.6559 0 1.7954-0.23426 0.83128-1.3959zm-9.8992-2.2877c-0.48984-0.47914-2.1562-1.1407-3.7031-1.4701-2.6739-0.56945-2.7228-0.52653-0.99269 0.87116 1.9439 1.5704 6.2505 2.1197 4.6958 0.59896zm14.97-8.8002c2.2277-1.6289 1.5588-4.7795-1.0951-5.1583-2.7186-0.38801-5.173 4.1282-2.9931 5.5074 1.7854 1.1296 2.103 1.1025 4.0882-0.34912zm-9.1002-3.9409c2.9909-6.272-5.7158-9.7289-8.9635-3.5588-1.5851 3.0114-1.3555 3.8355 1.5003 5.3848 4.0626 2.204 5.7368 1.7944 7.4632-1.826zm16.996-12.213c1.3006-2.8544 1.3911-4.8142 0.2548-5.5164-1.1128-0.68777-5.992 5.7832-5.2572 6.9723 1.0852 1.7559 3.9141 0.93256 5.0024-1.4559zm-29.667-5.639c1.4601-0.46341 3.567-3.7877 3.567-5.628 0-1.1252-4.374-0.17499-7.1814 1.5601-3.34 2.05-5.95 1.34-5.95-1.62 0-3.3666-7.696 0.45944-8.708 4.3291-0.57139 2.185 5.2602 5.6179 9.5872 5.6438 1.3211 0.007 3.0348 0.42064 3.8083 0.91721 1.0984 0.70522 1.5884 0.2965 2.2386-1.8672 0.45782-1.5235 1.6421-3.0271 2.6318-3.3412zm19.937 1.2942c3.4118-11.489-1.3128-14.91-6.9055-5.0003-3.4556 6.123-3.6017 7.7621-0.7926 8.8912 4.8345 1.9432 6.1652 1.2706 7.6981-3.891zm20.65-19.756c3.4307-6.651 4.3984-9.3429 3.6337-10.108-2.0339-2.0339-12.667 16.285-11.009 18.967 1.1673 1.8888 2.9131-0.20827 7.3754-8.8593zm-10.535-3.5829c5.1247-10.822 5.1231-10.813 2.4147-13.696-2.5713-2.737-4.2119-2.7566-5.0658-0.0605-0.36743 1.1602-2.2943 5.6148-4.2819 9.8992-4.2064 9.0671-4.3134 9.8951-1.5303 11.844 3.3299 2.3323 3.7758 1.9114 8.4633-7.9873zm58.359 1.4633c24.697-3.1279 68.062-4.2673 98.906-2.5988 18.476 0.99945 22.258 0.62061 21.204-2.124-0.27699-0.72184-0.99402-5.0137-1.5934-9.5375-1.3193-9.9574-12.464-40.386-16.137-44.059-1.4309-1.4309-8.8569 0.42976-14.128 3.54-1.7694 1.044-6.4108 2.2546-10.711 2.7938-8.6311 1.0822-11.472 2.0013-22.876 7.4002-5.0597 2.3954-12.166 4.7418-18.75 6.1909-6.436 1.4166-13.592 3.7629-18.21 5.9709-4.1846 2.0005-9.297 3.9226-11.361 4.2713-15.645 2.6432-17.339 3.9258-28.828 21.83-6.3604 9.9117-6.2033 9.9559 22.485 6.3226zm-75.618-4.4385c1.0411-2.1914 3.7804-8.8359 6.0873-14.766 6.229-16.011 10.427-25.593 16.019-36.562 2.7598-5.4141 5.5469-11.531 6.1936-13.594 4.0731-12.991 23.275-44.531 27.111-44.531 0.39854 0 2.715-1.752 5.1476-3.8933 4.8574-4.2756 7.1673-5.9287 22.915-16.399 31.51-20.95 31.926-22.283 9.3043-29.809-14.236-4.7361-17.936-4.2531-15.564 2.0317 4.3935 11.64-25.58 19.656-43.635 11.67-5.3888-2.3838-5.6834-2.2688-10.824 4.2248-3.7456 4.7315-4.1809 5.8344-4.8763 12.357-0.41999 3.9391-1.193 10.326-1.7177 14.193-0.52476 3.8672-0.96714 11.169-0.98306 16.227-0.036 11.422-2.0984 26.095-7.1413 50.805-0.73663 3.6094-2.3627 12.494-3.6136 19.744-2.5712 14.903-3.0051 16.999-4.7429 22.912-2.9175 9.9271-2.7976 11.952 0.31934 5.3906zm-16.851 1.4062c2.8847-5.3927 11.366-46.06 11.382-54.58 0.004-1.821 1.5045-11.326 3.3355-21.123 1.9167-10.255 3.6802-23.381 4.1568-30.938 0.45521-7.2188 1.4961-17.344 2.3131-22.5 1.5928-10.053 1.6642-13.835 0.67216-35.625l-0.64022-14.062-4.8606 0.19877c-2.6733 0.10933-8.228 1.0586-12.344 2.1094-4.1157 1.0508-10.185 1.9106-13.488 1.9106-3.3027 0-7.873 0.58474-10.156 1.2994-2.2833 0.71469-6.8936 2.0225-10.245 2.9062-6.278 1.6553-11.086 3.1689-19.219 6.0497l-4.6875 1.6605 0.33472 7.4015c0.1841 4.0708 0.87575 9.089 1.537 11.152 0.66124 2.0625 1.4514 5.7513 1.7559 8.1973 0.30451 2.446 1.564 6.4538 2.7989 8.9062s2.9759 8.6777 3.8688 13.834c2.0522 11.851 4.9608 21.854 7.1922 24.736 0.9521 1.2297 1.7311 3.1708 1.7311 4.3135s0.98516 3.9335 2.1892 6.2017c1.2041 2.2682 2.4603 5.8115 2.7916 7.874 0.33126 2.0625 2.1201 7.3359 3.9751 11.719 4.527 10.696 5.6464 13.859 6.4546 18.239 0.37627 2.0394 1.7034 4.9194 2.9493 6.4 1.2458 1.4806 2.2652 3.3313 2.2652 4.1126 0 0.78135 2.5457 6.6802 5.657 13.109 4.7549 9.824 5.5606 12.202 5.0519 14.914-0.6751 3.5986 1.5627 4.6975 3.2277 1.585zm-35.51 0.26c0-1.8923-13.564-14.263-18.24-16.635-6.5889-3.3426-10.983-6.6264-19.26-14.394-3.3516-3.1451-7.9922-6.9321-10.312-8.4155-2.3203-1.4834-6.1452-4.401-8.4997-6.4837-2.3545-2.0826-8.245-6.9507-13.09-10.818-11.615-9.271-20.409-17.101-29.198-25.999l-7.1937-7.2826-3.4607 3.2812c-5.4835 5.1991-15.57 17.968-17.034 21.562-3.3108 8.1329-10.693 22.408-13.575 26.25-5.4375 7.2485-6.9483 12.585-3.8087 13.452 0.90234 0.24921 3.75 0.74048 6.3281 1.0917 2.5781 0.35121 7.8516 1.5898 11.719 2.7524 14.217 4.274 28.42 7.0703 36.032 7.0939 2.6123 0.008 8.5466 0.80302 13.187 1.7665 4.6406 0.96351 10.969 2.0442 14.062 2.4014 3.0938 0.35727 10.266 1.6336 15.938 2.8363 5.6719 1.2027 14.71 2.8781 20.085 3.723 5.3748 0.84495 10.114 1.7477 10.532 2.0061 2.1589 1.3343 15.789 2.897 15.789 1.8102zm19.827-9.5026c-4.4687-8.8782-9.4327-21.652-10.89-28.024-0.35381-1.5469-2.1374-6.1875-3.9636-10.312-3.5324-7.979-11.659-32.25-15.223-45.469-1.182-4.3828-3.3232-11.133-4.7582-15-1.435-3.8672-3.3291-10.195-4.209-14.062-0.87992-3.8672-2.2045-9.3516-2.9434-12.188-0.73899-2.8359-1.9548-8.381-2.7017-12.322-1.8381-9.6989-2.83-12.053-5.0794-12.053-3.5019 0-11.557 3.8184-15.888 7.5318-2.3795 2.0401-6.9414 5.7151-10.138 8.1668-9.1681 7.0325-24.768 21.738-28.876 27.222-2.0625 2.7528-5.4375 7.1447-7.5 9.7597s-4.1476 5.2966-4.6335 5.9591c-1.9057 2.5982 39.032 41.241 55.727 52.603 2.8359 1.9301 8.9531 6.5031 13.594 10.162 4.6406 3.6592 10.433 7.8062 12.873 9.2156 2.4394 1.4094 7.5804 5.1862 11.424 8.3928 21.723 18.122 28.624 21.222 23.186 10.417zm73.862-9.8583c3.813-6.3926 3.8696-12.505 0.0807-8.7166-3.689 3.689-8.2352 13.428-6.8942 14.769 1.549 1.549 3.1025 0.16904 6.8135-6.0526zm13.151-3.4005c0.0193-0.64453-0.13924-1.1719-0.35245-1.1719-0.71121 0-6.1751 7.8545-6.1609 8.8566 0.0194 1.3721 6.4699-6.2385 6.5134-7.6847zm-23.506-0.9375c1.6335-2.9648 3.4734-6.1136 4.0887-6.9972 0.92367-1.3264 0.70358-2.062-1.2623-4.2188-1.3096-1.4367-3.1176-3.7986-4.0178-5.2486-2.4224-3.9017-3.2569-2.9569-6.8335 7.7364l-3.2526 9.7248 2.6438 2.1632c4.0154 3.2855 5.3522 2.7962 8.6338-3.16zm33.968-12.933c2.8269-3.7442 3.64-5.4841 2.9059-6.2182-1.5464-1.5464-3.5854-0.33076-6.7327 4.0139-5.9183 8.17-2.2658 10.274 3.8268 2.2043zm-9.0575-5.2612c4.24-5.4598 4.3326-5.7133 2.7332-7.4806-3.3778-3.7324-7.7583-0.2423-10.634 8.4728-2.5825 7.8251 1.447 7.3192 7.9013-0.99215zm30.506 2.0276c1.8047-0.89619 7.0781-3.0056 11.719-4.6875 4.6406-1.682 8.8594-3.3654 9.375-3.7409 1.8903-1.3767 14.302-5.6645 22.969-7.9348 24.902-6.5233 30.029-8.0598 35.859-10.745 3.4805-1.6033 6.3281-3.0429 6.3281-3.1992 0-0.62291-8.2393-16.339-10.408-19.853-1.2729-2.0625-2.8178-4.9102-3.433-6.3281-1.6438-3.7888-4.631-3.3102-13.167 2.1094-4.0608 2.5781-7.8147 4.6875-8.3421 4.6875-0.52737 0-1.965 0.78572-3.1947 1.746-1.2297 0.96032-3.2905 2.0583-4.5796 2.44-3.6274 1.074-15.938 14.114-15.938 16.883 0 2.47-2.3415 4.2434-5.6025 4.2434-1.8496 0-19.71 11.822-19.71 13.046 0 0.30882-2.3252 3.2276-5.167 6.4861-6.8382 7.8408-5.8035 9.3646 3.292 4.8479zm-43.311-4.4581c6.9646-9.8852 6.9749-11.529 0.11862-18.984-5.3937-5.8649-5.6272-6.0061-6.2174-3.7603-0.3373 1.2834-1.8033 4.5958-3.2578 7.3608-4.7465 9.0233 3.8638 23.18 9.3567 15.384zm37.177-9.5675c2.5672-2.6796 2.6031-2.849 1.0913-5.1562-2.2161-3.3822-3.9974-2.9676-6.2538 1.4552-3.3271 6.5216 0.10378 8.9812 5.1625 3.701zm-9.7262-5.8595c4.4477-5.4734 4.6576-6.359 2.4539-10.354-2.4192-4.386-3.6792-4.403-7.4819-0.10106-6.9571 7.8707-7.7785 10.723-3.7214 12.924 3.9768 2.1575 5.2914 1.7865 8.7494-2.4689zm24.84-6.68c6.9314-6.8299 6.7657-6.3395 3.5616-10.54-3.2592-4.2731-3.689-4.162-9.9624 2.5754-6.1743 6.631-6.0218 6.1614-3.4275 10.559 2.5852 4.3816 2.8094 4.3224 9.8283-2.5937zm-35.97-4.85c5.742-10.83 5.7199-10.617 1.9369-18.62-4.649-9.8351-10.137-7.8968-17.188 6.0706-6.5921 13.059 8.4279 25.419 15.251 12.55zm27.317-7.6243c6.1986-6.7284 6.1238-6.3269 2.0625-11.073-3.6297-4.2414-3.6374-4.2388-10.017 3.3812-4.2019 5.0188-4.3209 6.8909-0.72807 11.458 2.4621 3.1301 2.2401 3.2264 8.6827-3.7669zm27.986-4.9965c6.0733-6.2452 6.4873-7.5679 3.0697-9.8072-4.0961-2.6838-15.446 3.5481-15.446 8.4811 0 7.3889 5.8684 8.0178 12.376 1.3261zm-38.315-11.125 5.4085-5.4655-3.8786-7.1907c-4.5726-8.4772-4.9835-8.5737-11.109-2.6068-5.9246 5.7708-6.8042 8.6864-3.6554 12.118 1.2704 1.3844 3.2502 3.8882 4.3995 5.564 2.6939 3.9279 2.5035 3.98 8.8354-2.4186zm28.526-0.0363c5.849-5.434 5.9303-6.0335 1.4413-10.631-6.9962-7.1648-16.6 2.9045-10.935 11.465 3.1252 4.7225 3.553 4.6849 9.4938-0.83435zm26.022-2.0234c0.32724-0.52947 3.9381-2.6436 8.0241-4.698 9.4916-4.7723 9.8635-4.101-10.704-19.322-10.283-7.6104-23.197 2.1012-14.345 10.788l4.0842 4.0083 3.5467-2.4068c5.6073-3.8052 7.4838-2.5676 4.2969 2.8338-3.0973 5.2495 1.929 13.923 5.0974 8.7966zm-38.037-14.453 4.088-4.1654-2.721-5.2074c-2.6242-5.0221-4.2876-6.2902-5.557-4.2363-0.33158 0.53652-2.2583 2.0205-4.2815 3.2977l-3.6786 2.3222 2.4624 4.9054c4.3585 8.6828 4.2321 8.6425 9.6877 3.0838zm73.64-4.28c0.31867-0.51563 2.242-0.9375 4.2741-0.9375 4.3283 0 4.7237-1.2049 1.1165-3.4022-1.418-0.86377-4.7865-2.9829-7.4856-4.7091-9.7601-6.2422-14.953-3.1021-8.1119 4.9053 4.2922 5.0241 8.5855 6.767 10.207 4.1435zm38.438-5.6512c14.24-2.0105 19.687-4.1392 15.098-5.9001-0.71929-0.27602-6.3091-2.2688-12.422-4.4285-6.1128-2.1597-13.104-4.9321-15.536-6.161-5.7222-2.8912-8.4161-2.7838-15.242 0.60764-3.0806 1.5307-6.3253 2.7831-7.2103 2.7831-4.86 0-0.73905 4.6105 8.4041 9.4026 8.7595 4.591 14.746 5.4133 26.907 3.6963zm-94.632-4.3911c4.9751-4.1587 4.9861-4.2352 1.116-7.756-6.3125-5.7426-15.53 1.3384-10.436 8.017 3.0972 4.0606 4.1859 4.0301 9.3196-0.26108zm26.649-2.6371c-3.2555-5.2675-4.5126-6.2226-6.6703-5.0678-2.5167 1.3469-2.0489 2.2272 3.4187 6.4342 5.225 4.0204 6.3013 3.5681 3.2516-1.3664zm15.675-2.0145c0.63835-1.6635-4.6312-6.8686-6.9536-6.8686-1.6741 0-1.5516 0.45742 1.261 4.7076 2.6167 3.9541 4.7009 4.7453 5.6925 2.161zm89.249-4.6869c14.577-8.1165 25.408-19.981 14.895-16.317-8.8656 3.0906-35.228-0.42878-56.414-7.5314-14.846-4.9771-17.16-5.1524-21.628-1.6383-3.2954 2.5922-3.1499 2.8833 3.3776 6.7576 6.7258 3.992 6.3575 3.9333 10.353 1.6507 7.898-4.5121 14.734-2.5504 8.396 2.4096-5.247 4.1064-1.5772 6.4768 22.829 14.746 11.793 3.9958 10.868 3.9997 18.191-0.0778zm-116.68-2.1227c2.0108-2.2218 1.4076-3.3234-3.057-5.583-6.6342-3.3578-10.255 0.53911-4.6239 4.9769 3.6563 2.8816 5.4907 3.0264 7.6809 0.60617zm43.499-0.11188c1.3706-1.0603 3.9361-2.8533 5.701-3.9844 8.8961-5.7013-5.1272-13.977-15.134-8.9317-9.18 4.6288-9.3925 5.8556-1.903 10.983 6.256 4.2826 7.9304 4.5682 11.336 1.9335zm-19.602-17.057c3.0431-2.1914 6.2825-4.4374 7.1986-4.9911 1.4708-0.88893 1.5241-1.3485 0.45571-3.9278-1.965-4.7439 0.88902-6.5566 5.3755-3.4141 2.4181 1.6937 4.8039 1.312 9.3561-1.497l3.1047-1.9158-4.0422-4.6239c-5.0647-5.7936-5.5242-5.7854-11.99 0.21353-2.9178 2.707-7.9438 7.0312-11.169 9.6094-11.642 9.3066-12.406 10.579-7.8361 13.058 3.5282 1.914 3.3302 1.9661 9.5469-2.5107zm-128.54-1.0152c0.17942-0.92508-0.29883-1.5629-1.1719-1.5629-0.86966 0-1.475 0.80156-1.475 1.9531 0 2.2847 2.1907 1.9618 2.6469-0.39019zm109.56-8.6644c4.0274-2.8745 9.0101-6.8108 11.073-8.7474 2.0625-1.9365 6.0336-4.9635 8.8248-6.7267 2.7911-1.7632 5.4153-3.4339 5.8315-3.7127 0.85955-0.57571 1.9065-36.901 1.1224-38.944-0.93671-2.441-2.5836-1.377-13.553 8.7568-5.9944 5.5379-14.122 12.389-18.061 15.225-3.9392 2.8359-10.214 7.496-13.945 10.356-3.7304 2.8596-9.2084 6.803-12.173 8.763-7.0834 4.6828-7.0029 4.8739 4.5832 10.881 5.4694 2.8359 11.264 6.0848 12.876 7.2196 4.2249 2.9738 5.2954 2.7288 13.421-3.0711zm125.72 2.6962c3.9744-0.87598 8.7834-1.5203 10.687-1.4318 10.048 0.46705-10.358-54.871-28.542-77.402-2.7927-3.4605-6.2666-8.1902-7.7198-10.51-4.512-7.2046-16.526-22.658-22.98-29.558-3.3898-3.6243-9.9956-11.218-14.68-16.875-4.684-5.657-11.769-13.323-15.744-17.037-6.4256-6.0023-7.1931-7.078-6.9184-9.6968 0.28102-2.6791-0.0303-3.0718-3.4402-4.3407-6.3842-2.3757-7.4262-2.4072-10.098-0.3054-2.9128 2.2912-3.5749 5.3198-0.91662 4.1932 6.4406-2.7297 8.925-3.2747 10.18-2.2334 2.0212 1.6774 1.6075 2.7365-2.5781 6.6006-3.2377 2.989-3.6888 3.8181-2.7156 4.9907 2.3276 2.8046 11.021 6.2772 16.13 6.4432 9.9198 0.32221 7.3367 5.8203-4.9381 10.511-3.4394 1.3143-8.3057 3.8488-10.814 5.6323-2.5084 1.7835-6.67 3.9369-9.2482 4.7853-7.7499 2.5504-22.645 18.544-28.68 30.796-2.54 5.1562-6.4978 11.695-8.7951 14.531-2.2973 2.8359-5.6001 8.1094-7.3395 11.719-3.6141 7.4993-6.9628 12.626-11.338 17.358-1.6758 1.8126-3.8385 4.5548-4.8059 6.0938s-3.0459 4.117-4.6189 5.729c-10.772 11.04-11.666 12.846-8.9694 18.132 3.25 6.3705 7.8237 5.4615 18.9-3.7559 2.9856-2.4846 7.4463-5.8896 9.9128-7.5667s7.0158-5.2237 10.11-7.8814c3.0938-2.6577 7.5418-6.1274 9.8845-7.7105 4.2072-2.843 28.566-26.696 36.284-35.53 17.513-20.046 18.411-20.963 20.547-20.963 2.7277 0 2.9232 2.5645 0.43701 5.7329-0.9649 1.2297-3.2859 5.4662-5.1577 9.4144-1.8718 3.9483-4.9262 9.0015-6.7876 11.229-4.9499 5.9247-5.0842 6.6981-4.7491 27.363 0.27575 17.007 0.50429 19.295 2.2643 22.666 9.2748 17.767 60.586 34.751 87.24 28.876zm-216.06-0.0479c0.23042-0.38671 0.57172-4.5 0.75844-9.1406l0.33951-8.4375-5.1562-1.0815c-4.7404-0.99426-18.75-1.6934-18.75-0.93572 0 0.17961 1.5892 3.2382 3.5317 6.7969l3.5317 6.4703 5.1118 0.29051c5.8309 0.33138 7.5124 1.3412 7.5124 4.5118 0 2.0999 2.1518 3.152 3.1208 1.5258zm17.879-3.4456c12.191-5.2995 12.485-6.4297 2.5723-9.8671-8.9434-3.1012-15.135 0.60023-15.135 9.0483 0 5.1469 2.2663 5.2946 12.562 0.81879zm6.0565-27.747c9.6953-7.4459 28.733-29.815 26.918-31.63-0.5235-0.52349-12.737 3.623-19.226 6.5273-3.3178 1.485-9.435 3.562-13.594 4.6155-14.483 3.6692-21.9 6.338-24.309 8.7468-3.0539 3.0539-18.991 3.6149-23.122 0.81389-4.7253-3.2044-9.8514-8.2667-10.945-10.809-0.61964-1.4408-1.5689-2.6195-2.1094-2.6195-1.6294 0-1.1069 2.6238 0.89371 4.4876 1.032 0.96151 3.7307 5.558 5.997 10.214 4.6327 9.5183 4.7365 9.5854 15.095 9.7545 3.6094 0.059 11.625 0.65474 17.812 1.324 16.47 1.7815 22.857 1.4388 26.588-1.4265zm-35.496-20.583c1.5061-0.95208 0.25006-4.1738-3.5913-9.2119-4.2972-5.6359-18.907-4.3755-18.907 1.6312 0 5.1485 17.185 10.939 22.498 7.5807zm21.097-6.6345c6.1867-2.0905 13.991-4.5753 17.342-5.5218 3.3516-0.94652 7.9922-2.5621 10.312-3.5902 2.3203-1.0281 7.8047-2.3964 12.188-3.0408 10.403-1.5294 10.183-1.377 15.818-10.957 2.6675-4.5351 5.5246-9.1948 6.3492-10.355 0.82452-1.1602 1.1185-2.1094 0.65319-2.1094-1.2728 0-15.861 6.2605-18.326 7.8646-6.6844 4.35-25.576 11.066-46.533 16.543-16.026 4.1882-15.72 3.9614-13.695 10.153 1.9184 5.8653 1.5944 5.8446 15.892 1.0136zm96.263-76.4c-0.52866-4.7166-1.9542-6.5419-3.7257-4.7704-1.3712 1.3712-1.3619 1.7808 0.11058 4.8686 1.8569 3.8939 4.0559 3.8342 3.6152-0.0982zm13.006-4.697 2.2529-2.3982-3.7302-3.1916c-5.4675-4.6782-6.9403-2.8316-3.778 4.7368 1.6234 3.8854 2.3028 3.9957 5.2552 0.853zm-24.2-22.578c4.6934-1.3258-1.2954-7.0949-9.519-9.1698-7.3338-1.8504-9.4654-1.35-9.4654 2.2221 0 6.197 9.4277 9.6472 18.984 6.9477zm19.046-10.181c4.5862-3.758 5.8396-3.8986 15.213-1.7062l6.8367 1.5991 3.8552-3.8552c6.3065-6.3065 2.5118-12.122-8.5649-13.127-6.509-0.59022-7.7845-1.8899-10.344-10.541-4.0041-13.532-19.326-11.289-25.698 3.7622-4.6929 11.084-4.5639 12.359 1.6527 16.336 2.7736 1.7742 6.3949 4.933 8.0475 7.0196 3.6536 4.613 3.9756 4.6314 9.0021 0.5125zm-10.51-17.814c-1.4171-3.6929 2.3385-9.96 4.9975-8.3397 2.5368 1.5459 2.6281 4.9147 0.20309 7.496-2.415 2.5706-4.4135 2.8948-5.2006 0.84366zm-23.015 2.6187c1.1916-0.2823 2.8504-1.6193 3.6863-2.9712 0.83588-1.3518 3.1305-4.9318 5.0991-7.9554 5.3338-8.1922 5.0258-9.1828-2.7488-8.8423l-6.3281 0.27721-2.5599 5.1562c-3.7584 7.5703-4.6598 16.488-1.5709 15.541 1.2407-0.38064 3.2307-0.92305 4.4223-1.2054zm-0.42404-9.1863c-0.74578-1.9435 2.253-6.2675 4.0984-5.9095 2.3054 0.44722 2.376 2.0672 0.21011 4.8207-2.2242 2.8277-3.516 3.1541-4.3085 1.0888zm76.029 5.7781c6.5761-4.8086-16.247-18.159-25.839-15.115-3.6887 1.1707-0.80613 10.308 3.5525 11.26 5.4573 1.1928 12.561 3.5439 13.038 4.3149 0.7786 1.2598 7.3432 0.93291 9.249-0.46058zm-80.72-28.988c2.4788-4.3639 1.4618-5.3522-5.4953-5.3403-14.213 0.02429-17.944 5.0364-5.9454 7.987 7.4143 1.8233 9.1266 1.4271 11.441-2.6467z"/>
</svg>
